<svg width="60" height="60" viewBox="0 0 60 60" fill="none" xmlns="http://www.w3.org/2000/svg">
<path d="M32.3737 27.5998C27.627 26.0265 25.3337 25.0398 25.3337 22.5332C25.3337 19.8132 28.2937 18.8265 30.1603 18.8265C33.6537 18.8265 34.9337 21.4665 35.227 22.3998L39.4403 20.6132C39.0403 19.4132 37.2537 15.4932 32.667 14.6398V11.3332H27.3337V14.6932C20.7203 16.1865 20.6937 22.3198 20.6937 22.5865C20.6937 28.6398 26.6937 30.3465 29.627 31.4132C33.8403 32.9065 35.707 34.2665 35.707 36.8265C35.707 39.8398 32.907 41.1198 30.427 41.1198C25.5737 41.1198 24.187 36.1332 24.027 35.5465L19.6003 37.3332C21.2803 43.1732 25.6803 44.7465 27.3337 45.2265V48.6665H32.667V45.3598C33.7337 45.1198 40.4003 43.7865 40.4003 36.7732C40.4003 33.0665 38.7737 29.8132 32.3737 27.5998ZM6.00033 53.9998H0.666992V37.9998H16.667V43.3332H10.0537C14.347 49.7598 21.6803 53.9998 30.0003 53.9998C36.3655 53.9998 42.47 51.4713 46.9709 46.9704C51.4718 42.4695 54.0003 36.365 54.0003 29.9998H59.3337C59.3337 46.2132 46.2137 59.3332 30.0003 59.3332C20.0803 59.3332 11.307 54.3998 6.00033 46.8798V53.9998ZM0.666992 29.9998C0.666992 13.7865 13.787 0.666504 30.0003 0.666504C39.9203 0.666504 48.6937 5.59984 54.0003 13.1198V5.99984H59.3337V21.9998H43.3337V16.6665H49.947C45.6537 10.2398 38.3203 5.99984 30.0003 5.99984C23.6351 5.99984 17.5306 8.5284 13.0298 13.0293C8.52889 17.5301 6.00033 23.6346 6.00033 29.9998H0.666992Z" fill="#187754"/>
</svg>
