<svg width="56" height="56" viewBox="0 0 56 56" fill="none" xmlns="http://www.w3.org/2000/svg">
<path d="M0 52.0001H56V56.0001H0V52.0001ZM50 18.0001C50.5304 18.0001 51.0391 17.7894 51.4142 17.4143C51.7893 17.0393 52 16.5306 52 16.0001V10.0001C51.9998 9.5891 51.873 9.18811 51.6368 8.85172C51.4006 8.51533 51.0665 8.25988 50.68 8.12013L28.68 0.120126C28.2406 -0.0387398 27.7594 -0.0387398 27.32 0.120126L5.32 8.12013C4.93346 8.25988 4.59936 8.51533 4.36317 8.85172C4.12698 9.18811 4.00017 9.5891 4 10.0001V16.0001C4 16.5306 4.21071 17.0393 4.58579 17.4143C4.96086 17.7894 5.46957 18.0001 6 18.0001H8V44.0001H4V48.0001H52V44.0001H48V18.0001H50ZM8 11.4001L28 4.12013L48 11.4001V14.0001H8V11.4001ZM32 44.0001H24V18.0001H32V44.0001ZM12 18.0001H20V44.0001H12V18.0001ZM44 44.0001H36V18.0001H44V44.0001Z" fill="#187754"/>
</svg>
