<svg width="57" height="56" viewBox="0 0 57 56" fill="none" xmlns="http://www.w3.org/2000/svg">
<path d="M54.0003 13.3333V33.3333H48.667V16L35.3337 6.66667L22.0003 16V20H16.667V13.3333L35.3337 0L54.0003 13.3333ZM39.3337 14.6667H36.667V17.3333H39.3337V14.6667ZM34.0003 14.6667H31.3337V17.3333H34.0003V14.6667ZM39.3337 20H36.667V22.6667H39.3337V20ZM34.0003 20H31.3337V22.6667H34.0003V20ZM48.667 38.6667H43.3337C43.3337 35.4667 41.3337 32.5867 38.347 31.4667L21.9203 25.3333H0.666992V54.6667H16.667V50.8267L35.3337 56L56.667 49.3333V46.6667C56.667 42.24 53.0937 38.6667 48.667 38.6667ZM6.00033 49.3333V30.6667H11.3337V49.3333H6.00033ZM35.2537 50.4267L16.667 45.28V30.6667H20.9603L36.4803 36.4533C37.387 36.8 38.0003 37.68 38.0003 38.6667C38.0003 38.6667 32.6937 38.5333 31.867 38.2667L25.5203 36.16L23.8403 41.2267L30.187 43.3333C31.547 43.7867 32.9603 44.0267 34.4003 44.0267H48.667C49.707 44.0267 50.6403 44.64 51.067 45.52L35.2537 50.4267Z" fill="#187754"/>
</svg>
