<svg width="17" height="27" viewBox="0 0 17 27" fill="none" xmlns="http://www.w3.org/2000/svg">
<path d="M15.4732 22.438L11.8616 14.591C11.5069 13.823 11.2167 12.511 11.2167 11.675C11.2167 10.839 11.7681 10.155 12.4421 10.155C13.116 10.155 13.6674 9.64103 13.6674 9.01503C13.6674 8.38903 12.9322 7.87503 12.0336 7.87503H4.68162C3.78304 7.87503 3.04784 8.38703 3.04784 9.01503C3.04784 9.64303 3.59924 10.155 4.27317 10.155C4.9471 10.155 5.49851 10.839 5.49851 11.675C5.49851 12.511 5.20829 13.823 4.85359 14.592L1.24208 22.44C0.887379 23.208 0.597168 24.18 0.597168 24.597C0.597168 25.014 0.964768 25.7 1.41406 26.117C1.86335 26.534 2.96615 26.877 3.86473 26.877H12.8505C13.748 26.877 14.8497 26.537 15.3012 26.117C15.7526 25.697 16.1181 25.015 16.1181 24.597C16.1181 24.179 15.8279 23.207 15.4732 22.44V22.438ZM9.52169 5.62503C9.52169 5.91226 9.64433 6.18772 9.86263 6.39082C10.0809 6.59393 10.377 6.70803 10.6858 6.70803C10.9945 6.70803 11.2906 6.59393 11.5089 6.39082C11.7272 6.18772 11.8498 5.91226 11.8498 5.62503C11.8497 5.3378 11.7269 5.06239 11.5085 4.85938C11.2901 4.65637 10.9939 4.54239 10.6852 4.54253C10.3765 4.54266 10.0805 4.65689 9.86225 4.86008C9.64405 5.06328 9.52154 5.3388 9.52169 5.62603V5.62503ZM6.38848 5.79203C6.53102 5.79203 6.66772 5.73935 6.7685 5.64558C6.86929 5.55181 6.92591 5.42463 6.92591 5.29203C6.92591 5.15942 6.86929 5.03224 6.7685 4.93847C6.66772 4.84471 6.53102 4.79203 6.38848 4.79203C6.24595 4.79203 6.10925 4.84471 6.00847 4.93847C5.90768 5.03224 5.85106 5.15942 5.85106 5.29203C5.85106 5.42463 5.90768 5.55181 6.00847 5.64558C6.10925 5.73935 6.24595 5.79203 6.38848 5.79203ZM8.44898 3.29203C8.67948 3.30268 8.90991 3.26962 9.12625 3.19486C9.34259 3.12009 9.54034 3.00519 9.70748 2.85713C9.87462 2.70907 10.0077 2.53094 10.0985 2.33356C10.1894 2.13619 10.2361 1.92369 10.236 1.70898C10.2359 1.49426 10.1888 1.28182 10.0977 1.08455C10.0065 0.887281 9.87326 0.709308 9.70592 0.561443C9.53858 0.413578 9.34068 0.298909 9.12423 0.224402C8.90779 0.149895 8.67732 0.117106 8.44683 0.128027C8.01425 0.153086 7.60822 0.33069 7.31153 0.624634C7.01483 0.918579 6.84979 1.30673 6.85007 1.70997C6.85034 2.1132 7.0159 2.50116 7.313 2.79476C7.6101 3.08835 8.01636 3.26548 8.44898 3.29003V3.29203Z" fill="#F9B122"/>
</svg>
