<svg width="58" height="50" viewBox="0 0 58 50" fill="none" xmlns="http://www.w3.org/2000/svg">
<path d="M58 25.9998C58 23.4332 57.2403 20.9241 55.8167 18.7887C54.393 16.6532 52.3691 14.9869 50 13.9998V10.9998C49.9983 8.49043 49.1386 6.05711 47.5637 4.10354C45.9888 2.14997 43.7933 0.793586 41.3415 0.259438C38.8897 -0.27471 36.3289 0.0454893 34.0841 1.16691C31.8393 2.28833 30.0454 4.14355 29 6.42477C27.9546 4.14355 26.1607 2.28833 23.9159 1.16691C21.6711 0.0454893 19.1103 -0.27471 16.6585 0.259438C14.2067 0.793586 12.0112 2.14997 10.4363 4.10354C8.86136 6.05711 8.00173 8.49043 8 10.9998V13.9998C5.6309 14.9869 3.607 16.6532 2.18335 18.7887C0.759694 20.9241 0 23.4332 0 25.9998C0 28.5663 0.759694 31.0754 2.18335 33.2109C3.607 35.3464 5.6309 37.0126 8 37.9998V38.9998C8.00173 41.5091 8.86136 43.9424 10.4363 45.896C12.0112 47.8496 14.2067 49.206 16.6585 49.7401C19.1103 50.2743 21.6711 49.9541 23.9159 48.8326C26.1607 47.7112 27.9546 45.856 29 43.5748C30.0454 45.856 31.8393 47.7112 34.0841 48.8326C36.3289 49.9541 38.8897 50.2743 41.3415 49.7401C43.7933 49.206 45.9888 47.8496 47.5637 45.896C49.1386 43.9424 49.9983 41.5091 50 38.9998V37.9998C52.3672 37.0099 54.3892 35.3429 55.8125 33.2081C57.2357 31.0732 57.9967 28.5656 58 25.9998ZM19 47.9998C16.6131 47.9998 14.3239 47.0516 12.636 45.3637C10.9482 43.6759 10 41.3867 10 38.9998V38.6498C10.9835 38.88 11.99 38.9974 13 38.9998H15C15.2652 38.9998 15.5196 38.8944 15.7071 38.7069C15.8946 38.5193 16 38.265 16 37.9998C16 37.7346 15.8946 37.4802 15.7071 37.2927C15.5196 37.1051 15.2652 36.9998 15 36.9998H13C10.4024 37.0045 7.88688 36.0898 5.89902 34.4176C3.91116 32.7454 2.57921 30.4237 2.13906 27.8637C1.6989 25.3036 2.17895 22.6704 3.49418 20.4303C4.80941 18.1902 6.87495 16.4879 9.325 15.6248C9.52067 15.5537 9.69007 15.4247 9.81065 15.255C9.93123 15.0853 9.99727 14.8829 10 14.6748V10.9998C10 8.61282 10.9482 6.32363 12.636 4.63581C14.3239 2.94798 16.6131 1.99977 19 1.99977C21.3869 1.99977 23.6761 2.94798 25.364 4.63581C27.0518 6.32363 28 8.61282 28 10.9998V32.6748C26.985 31.2306 25.6374 30.0519 24.0709 29.2382C22.5045 28.4245 20.7652 27.9997 19 27.9998C18.7348 27.9998 18.4804 28.1051 18.2929 28.2927C18.1054 28.4802 18 28.7346 18 28.9998C18 29.265 18.1054 29.5193 18.2929 29.7069C18.4804 29.8944 18.7348 29.9998 19 29.9998C21.3869 29.9998 23.6761 30.948 25.364 32.6358C27.0518 34.3236 28 36.6128 28 38.9998C28 41.3867 27.0518 43.6759 25.364 45.3637C23.6761 47.0516 21.3869 47.9998 19 47.9998ZM45 36.9998H43C42.7348 36.9998 42.4804 37.1051 42.2929 37.2927C42.1054 37.4802 42 37.7346 42 37.9998C42 38.265 42.1054 38.5193 42.2929 38.7069C42.4804 38.8944 42.7348 38.9998 43 38.9998H45C46.01 38.9974 47.0165 38.88 48 38.6498V38.9998C48 40.7798 47.4722 42.5199 46.4832 43.9999C45.4943 45.4799 44.0887 46.6335 42.4441 47.3147C40.7996 47.9959 38.99 48.1741 37.2442 47.8268C35.4984 47.4796 33.8947 46.6224 32.636 45.3637C31.3774 44.1051 30.5202 42.5014 30.1729 40.7556C29.8257 39.0098 30.0039 37.2002 30.6851 35.5556C31.3663 33.9111 32.5198 32.5055 33.9999 31.5165C35.4799 30.5276 37.22 29.9998 39 29.9998C39.2652 29.9998 39.5196 29.8944 39.7071 29.7069C39.8946 29.5193 40 29.265 40 28.9998C40 28.7346 39.8946 28.4802 39.7071 28.2927C39.5196 28.1051 39.2652 27.9998 39 27.9998C37.2348 27.9997 35.4955 28.4245 33.9291 29.2382C32.3626 30.0519 31.015 31.2306 30 32.6748V10.9998C30 8.61282 30.9482 6.32363 32.636 4.63581C34.3239 2.94798 36.6131 1.99977 39 1.99977C41.3869 1.99977 43.6761 2.94798 45.364 4.63581C47.0518 6.32363 48 8.61282 48 10.9998V14.6748C48.0027 14.8829 48.0688 15.0853 48.1894 15.255C48.3099 15.4247 48.4793 15.5537 48.675 15.6248C51.125 16.4879 53.1906 18.1902 54.5058 20.4303C55.821 22.6704 56.3011 25.3036 55.8609 27.8637C55.4208 30.4237 54.0888 32.7454 52.101 34.4176C50.1131 36.0898 47.5976 37.0045 45 36.9998ZM20 15.9998C19.9934 18.1195 19.1484 20.1505 17.6496 21.6493C16.1507 23.1482 14.1197 23.9932 12 23.9998C11.7348 23.9998 11.4804 23.8944 11.2929 23.7069C11.1054 23.5193 11 23.265 11 22.9998C11 22.7346 11.1054 22.4802 11.2929 22.2927C11.4804 22.1051 11.7348 21.9998 12 21.9998C13.5893 21.9932 15.1116 21.3589 16.2354 20.2351C17.3592 19.1113 17.9934 17.589 18 15.9998V13.9998C18 13.7346 18.1054 13.4802 18.2929 13.2927C18.4804 13.1051 18.7348 12.9998 19 12.9998C19.2652 12.9998 19.5196 13.1051 19.7071 13.2927C19.8946 13.4802 20 13.7346 20 13.9998V15.9998ZM47 22.9998C47 23.265 46.8946 23.5193 46.7071 23.7069C46.5196 23.8944 46.2652 23.9998 46 23.9998C43.8803 23.9932 41.8493 23.1482 40.3504 21.6493C38.8516 20.1505 38.0066 18.1195 38 15.9998V13.9998C38 13.7346 38.1054 13.4802 38.2929 13.2927C38.4804 13.1051 38.7348 12.9998 39 12.9998C39.2652 12.9998 39.5196 13.1051 39.7071 13.2927C39.8946 13.4802 40 13.7346 40 13.9998V15.9998C40.0066 17.589 40.6408 19.1113 41.7646 20.2351C42.8884 21.3589 44.4107 21.9932 46 21.9998C46.2652 21.9998 46.5196 22.1051 46.7071 22.2927C46.8946 22.4802 47 22.7346 47 22.9998Z" fill="#187754"/>
</svg>
