<svg width="48" height="48" viewBox="0 0 48 48" fill="none" xmlns="http://www.w3.org/2000/svg">
<path fill-rule="evenodd" clip-rule="evenodd" d="M44 2.66667H4C3.64638 2.66667 3.30724 2.80714 3.05719 3.05719C2.80714 3.30724 2.66667 3.64638 2.66667 4V44C2.66667 44.3536 2.80714 44.6928 3.05719 44.9428C3.30724 45.1929 3.64638 45.3333 4 45.3333H44C44.3536 45.3333 44.6928 45.1929 44.9428 44.9428C45.1929 44.6928 45.3333 44.3536 45.3333 44V4C45.3333 3.64638 45.1929 3.30724 44.9428 3.05719C44.6928 2.80714 44.3536 2.66667 44 2.66667ZM4 0C2.93913 0 1.92172 0.421427 1.17157 1.17157C0.421427 1.92172 0 2.93913 0 4V44C0 45.0609 0.421427 46.0783 1.17157 46.8284C1.92172 47.5786 2.93913 48 4 48H44C45.0609 48 46.0783 47.5786 46.8284 46.8284C47.5786 46.0783 48 45.0609 48 44V4C48 2.93913 47.5786 1.92172 46.8284 1.17157C46.0783 0.421427 45.0609 0 44 0H4Z" fill="#187754"/>
</svg>
